<svg 
    xmlns="http://www.w3.org/2000/svg"  
    viewBox="0 0 100 100" 
    width="65px" 
    height="65px"
    >

    <path fill="#fff" d="M70,82H31c-6.6,0-12-5.4-12-12V31c0-6.6,5.4-12,12-12h39c6.6,0,12,5.4,12,12v39 C82,76.6,76.6,82,70,82z"/>
    <path fill="#1f212b" d="M70.011,82.988h-39c-7.18,0-13-5.82-13-13v-39c0-7.18,5.82-13,13-13h39c7.18,0,13,5.82,13,13v39 C83.011,77.168,77.19,82.988,70.011,82.988z M20.011,30.988v39c0,6.075,4.925,11,11,11h39c6.075,0,11-4.925,11-11v-39 c0-6.075-4.925-11-11-11h-39C24.935,19.988,20.011,24.913,20.011,30.988z"/>
    <path fill="#1f212b" d="M67.173,77.988H33.848c-5.985,0-10.837-4.852-10.837-10.837V33.825 c0-5.985,4.852-10.837,10.837-10.837h33.663c0.276,0,0.5,0.224,0.5,0.5s-0.224,0.5-0.5,0.5H33.848 c-5.433,0-9.837,4.404-9.837,9.837V67.15c0,5.433,4.405,9.838,9.838,9.838h33.325c5.433,0,9.837-4.404,9.837-9.837V48.488 c0-0.276,0.224-0.5,0.5-0.5s0.5,0.224,0.5,0.5V67.15C78.011,73.136,73.158,77.988,67.173,77.988z M77.511,45.567 c-0.276,0-0.5-0.224-0.5-0.5v-4c0-0.276,0.224-0.5,0.5-0.5s0.5,0.224,0.5,0.5v4C78.011,45.344,77.787,45.567,77.511,45.567z M77.511,39.567c-0.276,0-0.5-0.224-0.5-0.5v-2c0-0.276,0.224-0.5,0.5-0.5s0.5,0.224,0.5,0.5v2 C78.011,39.344,77.787,39.567,77.511,39.567z"/>
    <path fill="#f15b6c" d="M64.5,30.5c-2.551,0-4.777,1.369-6,3.408c-1.223-2.039-3.449-3.408-6-3.408c-3.866,0-7,3.134-7,7 c0,8,10.638,16,13,16s13-8,13-16C71.5,33.634,68.366,30.5,64.5,30.5z"/>
    <path fill="none" stroke="#1f212b" strokeLinecap="round" strokeLinejoin="round" strokeMiterlimit="10" d="M64.5,30.5 c-2.551,0-4.777,1.369-6,3.408c-1.223-2.039-3.449-3.408-6-3.408c-3.866,0-7,3.134-7,7c0,8,10.638,16,13,16s13-8,13-16 C71.5,33.634,68.366,30.5,64.5,30.5z"/>
</svg>